<?xml version="1.0" encoding="utf-8"?>
<!-- Generator: Adobe Illustrator 16.0.0, SVG Export Plug-In . SVG Version: 6.00 Build 0)  -->
<!DOCTYPE svg PUBLIC "-//W3C//DTD SVG 1.1//EN" "http://www.w3.org/Graphics/SVG/1.1/DTD/svg11.dtd">
<svg version="1.1" id="Layer_1" xmlns="http://www.w3.org/2000/svg" xmlns:xlink="http://www.w3.org/1999/xlink" x="0px" y="0px"
	 width="24px" height="24px" viewBox="0 0 24 24" enable-background="new 0 0 24 24" xml:space="preserve">
<path fill="none" d="M0,0h24v24H0V0z"/>
<path fill="none" stroke="#000000" stroke-width="2" stroke-miterlimit="10" d="M13.656,4.403l-1.781-1.781H4.374
	c-1.032,0-1.866,0.844-1.866,1.875L2.498,19.502c0,1.031,0.835,1.875,1.866,1.875h11.263c0.422,0,1.688-0.312,1.875-1.526V9.91"/>
<path d="M8.279,11.473v2.685h2.686l7.92-7.92l-2.686-2.686L8.279,11.473z M20.961,4.162c0.279-0.279,0.279-0.73,0-1.01l-1.676-1.675
	c-0.279-0.279-0.73-0.279-1.01,0l-1.31,1.311l2.685,2.685L20.961,4.162z"/>
</svg>
